<?xml version="1.0" encoding="UTF-8" standalone="no"?>
<!-- Created with Inkscape (http://www.inkscape.org/) -->

<svg
   xmlns:dc="http://purl.org/dc/elements/1.1/"
   xmlns:cc="http://creativecommons.org/ns#"
   xmlns:rdf="http://www.w3.org/1999/02/22-rdf-syntax-ns#"
   xmlns:svg="http://www.w3.org/2000/svg"
   xmlns="http://www.w3.org/2000/svg"
   xmlns:sodipodi="http://sodipodi.sourceforge.net/DTD/sodipodi-0.dtd"
   xmlns:inkscape="http://www.inkscape.org/namespaces/inkscape"
   width="500"
   height="300"
   id="svg3001"
   version="1.1"
   inkscape:version="0.48.5 r10040"
   sodipodi:docname="pencil.svg"
   inkscape:export-filename="C:\g\theshapeofcollege.github.io\img\pencil.png"
   inkscape:export-xdpi="300"
   inkscape:export-ydpi="300">
  <defs
     id="defs3003">
    <inkscape:path-effect
       effect="spiro"
       id="path-effect3944"
       is_visible="true" />
    <inkscape:path-effect
       effect="spiro"
       id="path-effect3783"
       is_visible="true" />
    <inkscape:path-effect
       effect="spiro"
       id="path-effect3783-1"
       is_visible="true" />
    <inkscape:path-effect
       effect="spiro"
       id="path-effect3944-4"
       is_visible="true" />
    <inkscape:path-effect
       effect="spiro"
       id="path-effect3944-4-5"
       is_visible="true" />
    <inkscape:path-effect
       effect="spiro"
       id="path-effect3944-4-5-7"
       is_visible="true" />
    <inkscape:path-effect
       effect="spiro"
       id="path-effect3944-4-5-7-1"
       is_visible="true" />
    <inkscape:path-effect
       effect="spiro"
       id="path-effect3944-4-5-7-1-2"
       is_visible="true" />
    <inkscape:path-effect
       effect="spiro"
       id="path-effect3944-4-5-7-1-2-6"
       is_visible="true" />
  </defs>
  <sodipodi:namedview
     id="base"
     pagecolor="#ffffff"
     bordercolor="#666666"
     borderopacity="1.0"
     inkscape:pageopacity="1"
     inkscape:pageshadow="2"
     inkscape:zoom="1.4"
     inkscape:cx="226.5337"
     inkscape:cy="152.47015"
     inkscape:document-units="px"
     inkscape:current-layer="layer1"
     showgrid="false"
     inkscape:window-width="1440"
     inkscape:window-height="897"
     inkscape:window-x="-8"
     inkscape:window-y="-8"
     inkscape:window-maximized="1" />
  <metadata
     id="metadata3006">
    <rdf:RDF>
      <cc:Work
         rdf:about="">
        <dc:format>image/svg+xml</dc:format>
        <dc:type
           rdf:resource="http://purl.org/dc/dcmitype/StillImage" />
        <dc:title></dc:title>
      </cc:Work>
    </rdf:RDF>
  </metadata>
  <g
     inkscape:label="Layer 1"
     inkscape:groupmode="layer"
     id="layer1"
     transform="translate(0,-752.36218)">
    <g
       id="g4079"
       transform="matrix(1.3478602,0,0,1.3478602,-257.94793,-372.90833)">
      <rect
         transform="matrix(0.99801103,0.06303958,-0.33564384,0.94198897,0,0)"
         ry="0"
         y="925.84729"
         x="677.35522"
         height="101.37411"
         width="120.62125"
         id="rect3810"
         style="fill:#f6f7f4;fill-opacity:1;stroke:#000000;stroke-width:0.90064609;stroke-opacity:1" />
      <rect
         transform="matrix(0.98740956,0.1581846,-0.39893981,0.91697711,0,0)"
         ry="0"
         y="869.73419"
         x="599.56714"
         height="109.46809"
         width="119.3662"
         id="rect3810-4"
         style="fill:#f6f7f4;fill-opacity:1;stroke:#000000;stroke-width:0.9310289;stroke-opacity:1" />
      <path
         transform="translate(-0.71428572,780.21933)"
         d="m 368.21427,142.85715 c 0,1.97244 -3.59771,3.57143 -8.03571,3.57143 -4.438,0 -8.03572,-1.59899 -8.03572,-3.57143 0,-1.97245 3.59772,-3.57143 8.03572,-3.57143 4.438,0 8.03571,1.59898 8.03571,3.57143 z"
         sodipodi:ry="3.5714285"
         sodipodi:rx="8.0357141"
         sodipodi:cy="142.85715"
         sodipodi:cx="360.17856"
         id="path3830"
         style="fill:none;stroke:#000000;stroke-width:2;stroke-linecap:round;stroke-linejoin:round;stroke-miterlimit:4;stroke-opacity:1;stroke-dasharray:none;stroke-dashoffset:0"
         sodipodi:type="arc" />
      <path
         transform="translate(-9.1071292,802.00503)"
         d="m 368.21427,142.85715 c 0,1.97244 -3.59771,3.57143 -8.03571,3.57143 -4.438,0 -8.03572,-1.59899 -8.03572,-3.57143 0,-1.97245 3.59772,-3.57143 8.03572,-3.57143 4.438,0 8.03571,1.59898 8.03571,3.57143 z"
         sodipodi:ry="3.5714285"
         sodipodi:rx="8.0357141"
         sodipodi:cy="142.85715"
         sodipodi:cx="360.17856"
         id="path3830-0"
         style="fill:none;stroke:#000000;stroke-width:2;stroke-linecap:round;stroke-linejoin:round;stroke-miterlimit:4;stroke-opacity:1;stroke-dasharray:none;stroke-dashoffset:0"
         sodipodi:type="arc" />
      <path
         transform="translate(-18.0357,823.79074)"
         d="m 368.21427,142.85715 c 0,1.97244 -3.59771,3.57143 -8.03571,3.57143 -4.438,0 -8.03572,-1.59899 -8.03572,-3.57143 0,-1.97245 3.59772,-3.57143 8.03572,-3.57143 4.438,0 8.03571,1.59898 8.03571,3.57143 z"
         sodipodi:ry="3.5714285"
         sodipodi:rx="8.0357141"
         sodipodi:cy="142.85715"
         sodipodi:cx="360.17856"
         id="path3830-0-9"
         style="fill:none;stroke:#000000;stroke-width:2;stroke-linecap:round;stroke-linejoin:round;stroke-miterlimit:4;stroke-opacity:1;stroke-dasharray:none;stroke-dashoffset:0"
         sodipodi:type="arc" />
      <path
         transform="translate(-29.464272,851.64789)"
         d="m 368.21427,142.85715 c 0,1.97244 -3.59771,3.57143 -8.03571,3.57143 -4.438,0 -8.03572,-1.59899 -8.03572,-3.57143 0,-1.97245 3.59772,-3.57143 8.03572,-3.57143 4.438,0 8.03571,1.59898 8.03571,3.57143 z"
         sodipodi:ry="3.5714285"
         sodipodi:rx="8.0357141"
         sodipodi:cy="142.85715"
         sodipodi:cx="360.17856"
         id="path3830-0-9-4"
         style="fill:none;stroke:#000000;stroke-width:2;stroke-linecap:round;stroke-linejoin:round;stroke-miterlimit:4;stroke-opacity:1;stroke-dasharray:none;stroke-dashoffset:0"
         sodipodi:type="arc" />
      <rect
         transform="matrix(0.91850396,0.39541178,-0.39541178,0.91850396,0,0)"
         y="722.58429"
         x="575.91681"
         height="110"
         width="2.1428571"
         id="rect3886"
         style="fill:#000000;fill-opacity:1;stroke:none" />
      <rect
         transform="matrix(0.96250443,0.27126596,-0.32622264,0.94529297,0,0)"
         y="758.13043"
         x="761.06812"
         height="101.71291"
         width="2.1222236"
         id="rect3886-8"
         style="fill:#000000;fill-opacity:1;stroke:none" />
      <rect
         transform="matrix(-0.08250209,0.99659089,-0.99776317,-0.06684806,0,0)"
         y="-534.52759"
         x="986.49109"
         height="119.33694"
         width="2.1316276"
         id="rect3886-8-8"
         style="fill:#000000;fill-opacity:1;stroke:none" />
      <rect
         transform="matrix(-0.14466061,0.98948133,-0.98561925,-0.16898134,0,0)"
         y="-462.62711"
         x="942.1225"
         height="120.07839"
         width="2.1188467"
         id="rect3886-8-8-2"
         style="fill:#000000;fill-opacity:1;stroke:none" />
      <path
         transform="translate(0,752.36218)"
         inkscape:connector-curvature="0"
         inkscape:original-d="m 250.51783,165.14464 c 1.17851,0 2.35702,0 3.53554,0 0.16835,0 0.33671,0 0.50507,0 0.16836,0 0.35449,0.0753 0.50508,0 0.21296,-0.10648 0.29212,-0.3986 0.50507,-0.50508 0.30117,-0.15059 0.70899,0.15058 1.01016,0 0.21296,-0.10648 0.29211,-0.3986 0.50507,-0.50508 0.15059,-0.0753 0.34536,0.0532 0.50508,0 0.35714,-0.11905 0.65301,-0.38603 1.01015,-0.50507 0.47916,-0.15972 1.02523,0.1225 1.51523,0 0.36522,-0.0913 0.64493,-0.41377 1.01015,-0.50508 0.32667,-0.0817 0.69072,0.10648 1.01016,0 0.22587,-0.0753 0.27919,-0.42978 0.50507,-0.50508 0.28732,-0.0958 2.04968,0 2.52538,0 0.52874,0 2.61973,-0.10268 3.03046,0 1.53938,0.38485 0.82344,0.82344 2.02031,2.02031 0.26619,0.2662 0.68734,0.31139 1.01015,0.50508 1.04104,0.62462 1.98941,1.39568 3.03046,2.0203 0.32281,0.19369 0.78427,0.20391 1.01015,0.50508 0.31944,0.42591 0.26698,1.03903 0.50508,1.51523 0.55837,1.11675 0.31347,0.15673 1.01015,0.50507 0.21296,0.10648 0.29211,0.3986 0.50507,0.50508 0.13281,0.0664 1.75619,0 2.02031,0 0.84179,0 1.68359,0 2.52538,0 0.16836,0 0.34536,0.0532 0.50508,0 0.35714,-0.11905 0.65301,-0.38603 1.01015,-0.50508 0.65854,-0.21951 1.36177,-0.28556 2.0203,-0.50507 0.35715,-0.11905 0.64101,-0.43125 1.01016,-0.50508 0.49526,-0.0991 1.01523,0.0714 1.51523,0 0.68718,-0.0982 1.33312,-0.40691 2.0203,-0.50508 0.5,-0.0714 1.01015,0 1.51523,0 0.84179,0 1.68359,0 2.52538,0 0.38558,0 2.71224,-0.10607 3.03046,0 1.83105,0.61035 0.35946,0.23964 1.51523,1.01016 0.31323,0.20882 0.68734,0.31138 1.01015,0.50507 0.52052,0.31231 0.97229,0.73868 1.51523,1.01015 0.47619,0.2381 1.0995,0.17249 1.51523,0.50508 0.65733,0.52586 0.7623,1.64384 1.51523,2.02031 0.15058,0.0753 0.35449,-0.0753 0.50507,0 0.42592,0.21295 0.61394,0.74601 1.01016,1.01015 2.55154,1.70103 0.0117,0.004 1.51522,0.50507 0.35715,0.11905 0.65301,0.38603 1.01016,0.50508 0.15972,0.0532 0.33671,0 0.50507,0 0.33672,0 0.67344,0 1.01016,0 1.17851,0 2.35702,0 3.53553,0 0.33672,0 0.67802,0.0554 1.01015,0 0.68472,-0.11412 1.33312,-0.40691 2.02031,-0.50508 0.5,-0.0714 1.01015,0 1.51523,0 0.50507,0 1.01015,0 1.51522,0 0.50508,0 1.02524,-0.12249 1.51523,0 0.46323,0.11581 0.88567,1.32851 1.01016,1.51523 0.13207,0.19811 0.373,0.30697 0.50507,0.50508 0.20883,0.31323 0.29626,0.69692 0.50508,1.01015 0.13207,0.19811 0.33672,0.33672 0.50507,0.50508 0.33672,0.33672 0.67344,0.67343 1.01016,1.01015 0.16836,0.16836 0.33671,0.33672 0.50507,0.50508 0.16836,0.16836 0.29212,0.39859 0.50508,0.50507 0.15058,0.0753 0.33672,0 0.50508,0 0.16835,0 0.33671,0 0.50507,0"
         inkscape:path-effect="#path-effect3944"
         id="path3942"
         d="m 250.51783,165.14464 3.53554,0 0.50507,0 c 0.0846,0 0.1691,0.004 0.25338,0.0118 0.0843,0.007 0.17139,0.0148 0.2517,-0.0118 0.0574,-0.019 0.10796,-0.0551 0.15066,-0.0979 0.0427,-0.0428 0.0781,-0.0922 0.11217,-0.14215 0.0341,-0.0499 0.0671,-0.10077 0.10575,-0.14723 0.0387,-0.0465 0.0834,-0.0888 0.13649,-0.11776 0.0757,-0.0413 0.16456,-0.0534 0.25065,-0.0487 0.0861,0.005 0.17042,0.0254 0.25411,0.0461 0.0837,0.0208 0.16787,0.0418 0.25391,0.0474 0.086,0.006 0.17499,-0.005 0.25149,-0.0448 0.0535,-0.0278 0.0992,-0.0689 0.13879,-0.1144 0.0396,-0.0455 0.0735,-0.0956 0.10794,-0.14509 0.0344,-0.0495 0.0697,-0.0988 0.11152,-0.14223 0.0418,-0.0434 0.0908,-0.0811 0.14682,-0.10336 0.079,-0.0314 0.1669,-0.0304 0.25141,-0.0218 0.0845,0.009 0.16876,0.0246 0.25367,0.0218 0.19031,-0.006 0.36425,-0.106 0.52093,-0.21422 0.15669,-0.10821 0.30887,-0.22973 0.48922,-0.29085 0.24146,-0.0818 0.50507,-0.0464 0.75704,-0.007 0.25196,0.0389 0.51368,0.0797 0.75819,0.007 0.18177,-0.0537 0.33947,-0.16587 0.49732,-0.2708 0.15784,-0.10492 0.32533,-0.20657 0.51283,-0.23428 0.16855,-0.0249 0.33916,0.012 0.50776,0.0365 0.0843,0.0123 0.16942,0.0215 0.25455,0.0184 0.0851,-0.003 0.17064,-0.019 0.24785,-0.055 0.10875,-0.0507 0.19569,-0.13847 0.27243,-0.23072 0.0767,-0.0923 0.14617,-0.19116 0.23264,-0.27436 0.15819,-0.1522 0.36774,-0.24466 0.58367,-0.28424 0.21593,-0.0396 0.43859,-0.0287 0.65535,0.006 0.43354,0.0694 0.84969,0.23262 1.28636,0.27825 0.50808,0.0531 1.01699,-0.0552 1.5234,-0.12233 0.50642,-0.0671 1.04207,-0.0892 1.50706,0.12233 0.43719,0.19888 0.76054,0.58066 1.05142,0.96287 0.29088,0.3822 0.57315,0.78526 0.96889,1.05744 0.31057,0.2136 0.67407,0.3344 1.01015,0.50508 0.54351,0.27603 1.00971,0.67937 1.48344,1.06301 0.47372,0.38365 0.97122,0.75716 1.54702,0.95729 0.18085,0.0629 0.36786,0.10798 0.54545,0.17954 0.17758,0.0716 0.34888,0.17308 0.4647,0.32554 0.0818,0.10767 0.13243,0.23628 0.16494,0.36753 0.0325,0.13126 0.0477,0.26606 0.065,0.40018 0.0172,0.13412 0.0367,0.26868 0.0773,0.39767 0.0406,0.12899 0.10341,0.25311 0.19789,0.34985 0.13255,0.13571 0.3159,0.20751 0.49527,0.26927 0.17937,0.0617 0.36501,0.1195 0.51488,0.2358 0.0943,0.0732 0.17051,0.16669 0.24768,0.25782 0.0772,0.0911 0.15749,0.18186 0.25739,0.24726 0.14313,0.0937 0.3177,0.12935 0.48873,0.13324 0.17103,0.004 0.34126,-0.0214 0.5103,-0.0478 0.33806,-0.0527 0.67913,-0.0855 1.02128,-0.0855 l 2.52538,0 c 0.16847,0 0.33772,0.0193 0.50508,0 0.18852,-0.0217 0.36368,-0.10767 0.52561,-0.20665 0.16192,-0.099 0.31534,-0.21248 0.48454,-0.29843 0.31067,-0.15781 0.66096,-0.21625 1.00562,-0.26749 0.34467,-0.0512 0.69511,-0.0987 1.01468,-0.23758 0.34607,-0.15041 0.64652,-0.4043 1.01016,-0.50508 0.24448,-0.0678 0.50306,-0.0618 0.75594,-0.0415 0.25288,0.0203 0.50593,0.0545 0.75929,0.0415 0.34757,-0.0179 0.68394,-0.12401 1.01381,-0.23495 0.32988,-0.11093 0.66099,-0.2283 1.00649,-0.27013 0.50176,-0.0608 1.0098,0 1.51523,0 l 2.52538,0 c 0.50789,0 1.01524,-0.0288 1.52099,-0.0754 0.50575,-0.0466 1.03081,-0.0945 1.50947,0.0754 0.28714,0.10188 0.54075,0.27963 0.78101,0.46698 0.24027,0.18735 0.47246,0.38727 0.73422,0.54318 0.3236,0.19274 0.68552,0.31407 1.01015,0.50507 0.26244,0.15441 0.49637,0.35187 0.73716,0.53826 0.24078,0.18638 0.49317,0.36443 0.77807,0.47189 0.2513,0.0948 0.51993,0.13171 0.78208,0.19013 0.26215,0.0584 0.52696,0.14284 0.73315,0.31495 0.16866,0.14079 0.28799,0.33236 0.37983,0.53195 0.0918,0.19959 0.15877,0.40959 0.24104,0.61331 0.0823,0.20372 0.1818,0.40402 0.32879,0.5673 0.147,0.16328 0.3468,0.28754 0.56557,0.30775 0.168,0.0155 0.33903,-0.0299 0.50507,0 0.1199,0.0216 0.23052,0.082 0.32395,0.16021 0.0934,0.0782 0.1708,0.17382 0.24106,0.27336 0.14051,0.19908 0.25839,0.42007 0.44515,0.57658 0.20583,0.1725 0.47439,0.24874 0.73748,0.3026 0.2631,0.0539 0.53338,0.0911 0.77774,0.20247 0.17257,0.0787 0.3266,0.19193 0.4875,0.29234 0.16089,0.1004 0.33438,0.18999 0.52266,0.21274 0.16726,0.0202 0.3366,0 0.50507,0 l 1.01016,0 3.53553,0 c 0.33683,0 0.67447,0.0278 1.01015,0 0.69331,-0.0574 1.32923,-0.42522 2.02031,-0.50508 0.50206,-0.058 1.00983,0 1.51523,0 l 1.51522,0 c 0.25443,0 0.50848,-0.0167 0.76148,-0.0437 0.1265,-0.0135 0.25341,-0.0265 0.38061,-0.0246 0.1272,0.002 0.25572,0.0193 0.37314,0.0682 0.14313,0.0596 0.26438,0.16443 0.36016,0.28637 0.0958,0.12195 0.16754,0.26098 0.23022,0.40281 0.12535,0.28366 0.22044,0.58848 0.41978,0.82605 0.15324,0.18263 0.36055,0.31547 0.50507,0.50508 0.11451,0.15023 0.18419,0.32899 0.25246,0.50512 0.0683,0.17613 0.13801,0.35487 0.25262,0.50503 0.14458,0.18943 0.33657,0.33658 0.50507,0.50508 0.33672,0.33671 0.67344,0.67343 1.01016,1.01015 0.16836,0.16836 0.33671,0.33672 0.50507,0.50508 0.085,0.085 0.1634,0.17641 0.23729,0.2713 0.0369,0.0474 0.0743,0.0949 0.11755,0.13664 0.0433,0.0418 0.0932,0.078 0.15024,0.0971 0.0802,0.0269 0.16739,0.0193 0.25167,0.0119 0.0843,-0.007 0.16881,-0.0119 0.25341,-0.0119 l 0.50507,0"
         style="fill:none;stroke:#000000;stroke-width:1px;stroke-linecap:butt;stroke-linejoin:miter;stroke-opacity:0.16931218" />
      <path
         inkscape:connector-curvature="0"
         inkscape:original-d="m 253.04322,932.04678 c 1.17851,0 2.35702,0 3.53554,0 0.16835,0 0.33671,0 0.50507,0 0.16836,0 0.35449,0.0753 0.50508,0 0.21296,-0.10648 0.29212,-0.3986 0.50507,-0.50508 0.30117,-0.15059 0.70899,0.15058 1.01016,0 0.21296,-0.10648 0.29211,-0.3986 0.50507,-0.50508 0.15059,-0.0753 0.34536,0.0532 0.50508,0 0.35714,-0.11905 0.65301,-0.38603 1.01015,-0.50507 0.47916,-0.15972 1.02523,0.1225 1.51523,0 0.36522,-0.0913 0.64493,-0.41377 1.01015,-0.50508 0.32667,-0.0817 0.69072,0.10648 1.01016,0 0.22587,-0.0753 0.27919,-0.42978 0.50507,-0.50508 0.28732,-0.0958 2.04968,0 2.52538,0 0.52874,0 2.61973,-0.10268 3.03046,0 1.53938,0.38485 0.82344,0.82344 2.02031,2.02031 0.26619,0.2662 0.68734,0.31139 1.01015,0.50508 1.04104,0.62462 1.98941,1.39568 3.03046,2.0203 0.32281,0.19369 0.78427,0.20391 1.01015,0.50508 0.31944,0.42591 0.26698,1.03903 0.50508,1.51523 0.55837,1.11675 0.31347,0.15673 1.01015,0.50507 0.21296,0.10648 0.29211,0.3986 0.50507,0.50508 0.13281,0.0664 1.75619,0 2.02031,0 0.84179,0 1.68359,0 2.52538,0 0.16836,0 0.34536,0.0532 0.50508,0 0.35714,-0.11905 0.65301,-0.38603 1.01015,-0.50508 0.65854,-0.21951 1.36177,-0.28556 2.0203,-0.50507 0.35715,-0.11905 0.64101,-0.43125 1.01016,-0.50508 0.49526,-0.0991 1.01523,0.0714 1.51523,0 0.68718,-0.0982 1.33312,-0.40691 2.0203,-0.50508 0.5,-0.0714 1.01015,0 1.51523,0 0.84179,0 1.68359,0 2.52538,0 0.38558,0 2.71224,-0.10607 3.03046,0 1.83105,0.61035 0.35946,0.23964 1.51523,1.01016 0.31323,0.20882 0.68734,0.31138 1.01015,0.50507 0.52052,0.31231 0.97229,0.73868 1.51523,1.01015 0.47619,0.2381 1.0995,0.17249 1.51523,0.50508 0.65733,0.52586 0.7623,1.64384 1.51523,2.02031 0.15058,0.0753 0.35449,-0.0753 0.50507,0 0.42592,0.21295 0.61394,0.74601 1.01016,1.01015 2.55154,1.70103 0.0117,0.004 1.51522,0.50507 0.35715,0.11905 0.65301,0.38603 1.01016,0.50508 0.15972,0.0532 0.33671,0 0.50507,0 0.33672,0 0.67344,0 1.01016,0 1.17851,0 2.35702,0 3.53553,0 0.33672,0 0.67802,0.0554 1.01015,0 0.68472,-0.11412 1.33312,-0.40691 2.02031,-0.50508 0.5,-0.0714 1.01015,0 1.51523,0 0.50507,0 1.01015,0 1.51522,0 0.50508,0 1.02524,-0.12249 1.51523,0 0.46323,0.11581 0.88567,1.32851 1.01016,1.51523 0.13207,0.19811 0.373,0.30697 0.50507,0.50508 0.20883,0.31323 0.29626,0.69692 0.50508,1.01015 0.13207,0.19811 0.33672,0.33672 0.50507,0.50508 0.33672,0.33672 0.67344,0.67343 1.01016,1.01015 0.16836,0.16836 0.33671,0.33672 0.50507,0.50508 0.16836,0.16836 0.29212,0.39859 0.50508,0.50507 0.15058,0.0753 0.33672,0 0.50508,0 0.16835,0 0.33671,0 0.50507,0"
         inkscape:path-effect="#path-effect3944-4"
         id="path3942-5"
         d="m 253.04322,932.04678 3.53554,0 0.50507,0 c 0.0846,0 0.1691,0.004 0.25338,0.0118 0.0843,0.007 0.17139,0.0148 0.2517,-0.0118 0.0574,-0.019 0.10796,-0.0552 0.15066,-0.0979 0.0427,-0.0428 0.0781,-0.0922 0.11217,-0.14215 0.0341,-0.0499 0.0671,-0.10077 0.10575,-0.14723 0.0387,-0.0465 0.0834,-0.0888 0.13649,-0.11776 0.0757,-0.0413 0.16456,-0.0534 0.25065,-0.0487 0.0861,0.005 0.17042,0.0254 0.25411,0.0461 0.0837,0.0208 0.16787,0.0418 0.25391,0.0474 0.086,0.006 0.17499,-0.005 0.25149,-0.0448 0.0535,-0.0278 0.0992,-0.0689 0.13879,-0.1144 0.0396,-0.0455 0.0735,-0.0956 0.10794,-0.14509 0.0344,-0.0495 0.0697,-0.0988 0.11152,-0.14223 0.0418,-0.0434 0.0908,-0.0811 0.14682,-0.10336 0.079,-0.0314 0.1669,-0.0304 0.25141,-0.0218 0.0845,0.009 0.16876,0.0246 0.25367,0.0218 0.19031,-0.006 0.36425,-0.106 0.52093,-0.21422 0.15669,-0.10821 0.30887,-0.22973 0.48922,-0.29085 0.24146,-0.0818 0.50507,-0.0464 0.75704,-0.007 0.25196,0.0389 0.51368,0.0797 0.75819,0.007 0.18177,-0.0537 0.33947,-0.16587 0.49732,-0.2708 0.15784,-0.10492 0.32533,-0.20657 0.51283,-0.23428 0.16855,-0.0249 0.33916,0.012 0.50776,0.0365 0.0843,0.0123 0.16942,0.0215 0.25455,0.0184 0.0851,-0.003 0.17064,-0.019 0.24785,-0.055 0.10875,-0.0507 0.19569,-0.13847 0.27243,-0.23072 0.0767,-0.0923 0.14617,-0.19116 0.23264,-0.27436 0.15819,-0.1522 0.36774,-0.24466 0.58367,-0.28424 0.21593,-0.0396 0.43859,-0.0287 0.65535,0.006 0.43354,0.0694 0.84969,0.23262 1.28636,0.27825 0.50808,0.0531 1.01699,-0.0552 1.5234,-0.12233 0.50642,-0.0671 1.04207,-0.0892 1.50706,0.12233 0.43719,0.19888 0.76054,0.58066 1.05142,0.96287 0.29088,0.3822 0.57315,0.78526 0.96889,1.05744 0.31057,0.2136 0.67407,0.3344 1.01015,0.50508 0.54351,0.27603 1.00971,0.67937 1.48344,1.06301 0.47372,0.38365 0.97122,0.75716 1.54702,0.95729 0.18085,0.0629 0.36786,0.10798 0.54545,0.17954 0.17758,0.0716 0.34888,0.17308 0.4647,0.32554 0.0818,0.10767 0.13243,0.23628 0.16494,0.36753 0.0325,0.13126 0.0477,0.26606 0.065,0.40018 0.0172,0.13412 0.0367,0.26868 0.0773,0.39767 0.0406,0.12899 0.10341,0.25311 0.19789,0.34985 0.13255,0.13571 0.3159,0.20751 0.49527,0.26927 0.17937,0.0617 0.36501,0.1195 0.51488,0.2358 0.0943,0.0732 0.17051,0.16669 0.24768,0.25782 0.0772,0.0911 0.15749,0.18186 0.25739,0.24726 0.14313,0.0937 0.3177,0.12935 0.48873,0.13324 0.17103,0.004 0.34126,-0.0214 0.5103,-0.0478 0.33806,-0.0527 0.67913,-0.0855 1.02128,-0.0855 l 2.52538,0 c 0.16847,0 0.33772,0.0193 0.50508,0 0.18852,-0.0217 0.36368,-0.10767 0.52561,-0.20665 0.16192,-0.099 0.31534,-0.21248 0.48454,-0.29843 0.31067,-0.15781 0.66096,-0.21625 1.00562,-0.26749 0.34467,-0.0512 0.69511,-0.0987 1.01468,-0.23758 0.34607,-0.15041 0.64652,-0.4043 1.01016,-0.50508 0.24448,-0.0678 0.50306,-0.0618 0.75594,-0.0415 0.25288,0.0203 0.50593,0.0545 0.75929,0.0415 0.34757,-0.0179 0.68394,-0.12401 1.01381,-0.23495 0.32988,-0.11093 0.66099,-0.2283 1.00649,-0.27013 0.50176,-0.0607 1.0098,0 1.51523,0 l 2.52538,0 c 0.50789,0 1.01524,-0.0288 1.52099,-0.0754 0.50575,-0.0466 1.03081,-0.0945 1.50947,0.0754 0.28714,0.10188 0.54075,0.27963 0.78101,0.46698 0.24027,0.18735 0.47246,0.38727 0.73422,0.54318 0.3236,0.19274 0.68552,0.31407 1.01015,0.50507 0.26244,0.15441 0.49637,0.35187 0.73716,0.53826 0.24078,0.18638 0.49317,0.36443 0.77807,0.47189 0.2513,0.0948 0.51993,0.13171 0.78208,0.19013 0.26215,0.0584 0.52696,0.14284 0.73315,0.31495 0.16866,0.14079 0.28799,0.33236 0.37983,0.53195 0.0918,0.19959 0.15877,0.40959 0.24104,0.61331 0.0823,0.20372 0.1818,0.40402 0.32879,0.5673 0.147,0.16328 0.3468,0.28754 0.56557,0.30775 0.168,0.0155 0.33903,-0.0299 0.50507,0 0.1199,0.0216 0.23052,0.082 0.32395,0.16021 0.0934,0.0782 0.1708,0.17382 0.24106,0.27336 0.14051,0.19908 0.25839,0.42007 0.44515,0.57658 0.20583,0.1725 0.47439,0.24874 0.73748,0.3026 0.2631,0.0539 0.53338,0.0911 0.77774,0.20247 0.17257,0.0787 0.3266,0.19193 0.4875,0.29234 0.16089,0.1004 0.33438,0.18999 0.52266,0.21274 0.16726,0.0202 0.3366,0 0.50507,0 l 1.01016,0 3.53553,0 c 0.33683,0 0.67447,0.0278 1.01015,0 0.69331,-0.0574 1.32923,-0.42522 2.02031,-0.50508 0.50206,-0.058 1.00983,0 1.51523,0 l 1.51522,0 c 0.25443,0 0.50848,-0.0167 0.76148,-0.0437 0.1265,-0.0135 0.25341,-0.0264 0.38061,-0.0246 0.1272,0.002 0.25572,0.0193 0.37314,0.0682 0.14313,0.0596 0.26438,0.16443 0.36016,0.28637 0.0958,0.12195 0.16754,0.26098 0.23022,0.40281 0.12535,0.28366 0.22044,0.58848 0.41978,0.82605 0.15324,0.18263 0.36055,0.31547 0.50507,0.50508 0.11451,0.15023 0.18419,0.32899 0.25246,0.50512 0.0683,0.17613 0.13801,0.35487 0.25262,0.50503 0.14458,0.18943 0.33657,0.33658 0.50507,0.50508 0.33672,0.33671 0.67344,0.67343 1.01016,1.01015 0.16836,0.16836 0.33671,0.33672 0.50507,0.50508 0.085,0.085 0.1634,0.17641 0.23729,0.2713 0.0369,0.0474 0.0743,0.0949 0.11755,0.13664 0.0433,0.0418 0.0932,0.078 0.15024,0.0971 0.0802,0.0269 0.16739,0.0193 0.25167,0.0119 0.0843,-0.007 0.16881,-0.0119 0.25341,-0.0119 l 0.50507,0"
         style="fill:none;stroke:#000000;stroke-width:1px;stroke-linecap:butt;stroke-linejoin:miter;stroke-opacity:0.16931218" />
      <path
         inkscape:connector-curvature="0"
         inkscape:original-d="m 240.41631,943.66353 c 1.17851,0 2.35702,0 3.53554,0 0.16835,0 0.33671,0 0.50507,0 0.16836,0 0.35449,0.0753 0.50508,0 0.21296,-0.10648 0.29212,-0.3986 0.50507,-0.50508 0.30117,-0.15059 0.70899,0.15058 1.01016,0 0.21296,-0.10648 0.29211,-0.3986 0.50507,-0.50508 0.15059,-0.0753 0.34536,0.0532 0.50508,0 0.35714,-0.11905 0.65301,-0.38603 1.01015,-0.50507 0.47916,-0.15972 1.02523,0.1225 1.51523,0 0.36522,-0.0913 0.64493,-0.41377 1.01015,-0.50508 0.32667,-0.0817 0.69072,0.10648 1.01016,0 0.22587,-0.0753 0.27919,-0.42978 0.50507,-0.50508 0.28732,-0.0958 2.04968,0 2.52538,0 0.52874,0 2.61973,-0.10268 3.03046,0 1.53938,0.38485 0.82344,0.82344 2.02031,2.02031 0.26619,0.2662 0.68734,0.31139 1.01015,0.50508 1.04104,0.62462 1.98941,1.39568 3.03046,2.0203 0.32281,0.19369 0.78427,0.20391 1.01015,0.50508 0.31944,0.42591 0.26698,1.03903 0.50508,1.51523 0.55837,1.11675 0.31347,0.15673 1.01015,0.50507 0.21296,0.10648 0.29211,0.3986 0.50507,0.50508 0.13281,0.0664 1.75619,0 2.02031,0 0.84179,0 1.68359,0 2.52538,0 0.16836,0 0.34536,0.0532 0.50508,0 0.35714,-0.11905 0.65301,-0.38603 1.01015,-0.50508 0.65854,-0.21951 1.36177,-0.28556 2.0203,-0.50507 0.35715,-0.11905 0.64101,-0.43125 1.01016,-0.50508 0.49526,-0.0991 1.01523,0.0714 1.51523,0 0.68718,-0.0982 1.33312,-0.40691 2.0203,-0.50508 0.5,-0.0714 1.01015,0 1.51523,0 0.84179,0 1.68359,0 2.52538,0 0.38558,0 2.71224,-0.10607 3.03046,0 1.83105,0.61035 0.35946,0.23964 1.51523,1.01016 0.31323,0.20882 0.68734,0.31138 1.01015,0.50507 0.52052,0.31231 0.97229,0.73868 1.51523,1.01015 0.47619,0.2381 1.0995,0.17249 1.51523,0.50508 0.65733,0.52586 0.7623,1.64384 1.51523,2.02031 0.15058,0.0753 0.35449,-0.0753 0.50507,0 0.42592,0.21295 0.61394,0.74601 1.01016,1.01015 2.55154,1.70103 0.0117,0.004 1.51522,0.50507 0.35715,0.11905 0.65301,0.38603 1.01016,0.50508 0.15972,0.0532 0.33671,0 0.50507,0 0.33672,0 0.67344,0 1.01016,0 1.17851,0 2.35702,0 3.53553,0 0.33672,0 0.67802,0.0554 1.01015,0 0.68472,-0.11412 1.33312,-0.40691 2.02031,-0.50508 0.5,-0.0714 1.01015,0 1.51523,0 0.50507,0 1.01015,0 1.51522,0 0.50508,0 1.02524,-0.12249 1.51523,0 0.46323,0.11581 0.88567,1.32851 1.01016,1.51523 0.13207,0.19811 0.373,0.30697 0.50507,0.50508 0.20883,0.31323 0.29626,0.69692 0.50508,1.01015 0.13207,0.19811 0.33672,0.33672 0.50507,0.50508 0.33672,0.33672 0.67344,0.67343 1.01016,1.01015 0.16836,0.16836 0.33671,0.33672 0.50507,0.50508 0.16836,0.16836 0.29212,0.39859 0.50508,0.50507 0.15058,0.0753 0.33672,0 0.50508,0 0.16835,0 0.33671,0 0.50507,0"
         inkscape:path-effect="#path-effect3944-4-5"
         id="path3942-5-1"
         d="m 240.41631,943.66353 3.53554,0 0.50507,0 c 0.0846,0 0.1691,0.004 0.25338,0.0118 0.0843,0.007 0.17139,0.0148 0.2517,-0.0118 0.0574,-0.019 0.10796,-0.0552 0.15066,-0.0979 0.0427,-0.0428 0.0781,-0.0922 0.11217,-0.14215 0.0341,-0.0499 0.0671,-0.10077 0.10575,-0.14723 0.0387,-0.0465 0.0834,-0.0888 0.13649,-0.11776 0.0757,-0.0413 0.16456,-0.0534 0.25065,-0.0487 0.0861,0.005 0.17042,0.0254 0.25411,0.0461 0.0837,0.0208 0.16787,0.0418 0.25391,0.0474 0.086,0.006 0.17499,-0.005 0.25149,-0.0448 0.0535,-0.0278 0.0992,-0.0689 0.13879,-0.1144 0.0396,-0.0455 0.0735,-0.0956 0.10794,-0.14509 0.0344,-0.0495 0.0697,-0.0988 0.11152,-0.14223 0.0418,-0.0434 0.0908,-0.0811 0.14682,-0.10336 0.079,-0.0314 0.1669,-0.0304 0.25141,-0.0218 0.0845,0.009 0.16876,0.0246 0.25367,0.0218 0.19031,-0.006 0.36425,-0.106 0.52093,-0.21422 0.15669,-0.10821 0.30887,-0.22973 0.48922,-0.29085 0.24146,-0.0818 0.50507,-0.0463 0.75704,-0.007 0.25196,0.0389 0.51368,0.0797 0.75819,0.007 0.18177,-0.0537 0.33947,-0.16587 0.49732,-0.2708 0.15784,-0.10492 0.32533,-0.20657 0.51283,-0.23428 0.16855,-0.0249 0.33916,0.012 0.50776,0.0365 0.0843,0.0123 0.16942,0.0215 0.25455,0.0184 0.0851,-0.003 0.17064,-0.019 0.24785,-0.055 0.10875,-0.0507 0.19569,-0.13847 0.27243,-0.23072 0.0767,-0.0923 0.14617,-0.19116 0.23264,-0.27436 0.15819,-0.1522 0.36774,-0.24466 0.58367,-0.28424 0.21593,-0.0396 0.43859,-0.0287 0.65535,0.006 0.43354,0.0694 0.84969,0.23262 1.28636,0.27825 0.50808,0.0531 1.01699,-0.0552 1.5234,-0.12233 0.50642,-0.0671 1.04207,-0.0892 1.50706,0.12233 0.43719,0.19888 0.76054,0.58066 1.05142,0.96287 0.29088,0.3822 0.57315,0.78526 0.96889,1.05744 0.31057,0.2136 0.67407,0.3344 1.01015,0.50508 0.54351,0.27603 1.00971,0.67937 1.48344,1.06301 0.47372,0.38365 0.97122,0.75716 1.54702,0.95729 0.18085,0.0629 0.36786,0.10798 0.54545,0.17954 0.17758,0.0716 0.34888,0.17308 0.4647,0.32554 0.0818,0.10767 0.13243,0.23628 0.16494,0.36753 0.0325,0.13126 0.0477,0.26606 0.065,0.40018 0.0172,0.13412 0.0367,0.26868 0.0773,0.39767 0.0406,0.12899 0.10341,0.25311 0.19789,0.34985 0.13255,0.13571 0.3159,0.20751 0.49527,0.26927 0.17937,0.0618 0.36501,0.1195 0.51488,0.2358 0.0943,0.0732 0.17051,0.16669 0.24768,0.25782 0.0772,0.0911 0.15749,0.18186 0.25739,0.24726 0.14313,0.0937 0.3177,0.12935 0.48873,0.13324 0.17103,0.004 0.34126,-0.0214 0.5103,-0.0478 0.33806,-0.0527 0.67913,-0.0855 1.02128,-0.0855 l 2.52538,0 c 0.16847,0 0.33772,0.0193 0.50508,0 0.18852,-0.0217 0.36368,-0.10767 0.52561,-0.20665 0.16192,-0.099 0.31534,-0.21248 0.48454,-0.29843 0.31067,-0.15781 0.66096,-0.21625 1.00562,-0.26749 0.34467,-0.0512 0.69511,-0.0987 1.01468,-0.23758 0.34607,-0.15041 0.64652,-0.4043 1.01016,-0.50508 0.24448,-0.0678 0.50306,-0.0618 0.75594,-0.0415 0.25288,0.0203 0.50593,0.0545 0.75929,0.0415 0.34757,-0.0179 0.68394,-0.12401 1.01381,-0.23495 0.32988,-0.11093 0.66099,-0.2283 1.00649,-0.27013 0.50176,-0.0607 1.0098,0 1.51523,0 l 2.52538,0 c 0.50789,0 1.01524,-0.0288 1.52099,-0.0754 0.50575,-0.0466 1.03081,-0.0945 1.50947,0.0754 0.28714,0.10188 0.54075,0.27963 0.78101,0.46698 0.24027,0.18735 0.47246,0.38727 0.73422,0.54318 0.3236,0.19274 0.68552,0.31407 1.01015,0.50507 0.26244,0.15441 0.49637,0.35187 0.73716,0.53826 0.24078,0.18638 0.49317,0.36443 0.77807,0.47189 0.2513,0.0948 0.51993,0.13171 0.78208,0.19013 0.26215,0.0584 0.52696,0.14284 0.73315,0.31495 0.16866,0.14079 0.28799,0.33236 0.37983,0.53195 0.0918,0.19959 0.15877,0.40959 0.24104,0.61331 0.0823,0.20372 0.1818,0.40402 0.32879,0.5673 0.147,0.16328 0.3468,0.28754 0.56557,0.30775 0.168,0.0155 0.33903,-0.0299 0.50507,0 0.1199,0.0216 0.23052,0.082 0.32395,0.16021 0.0934,0.0782 0.1708,0.17382 0.24106,0.27336 0.14051,0.19908 0.25839,0.42007 0.44515,0.57658 0.20583,0.1725 0.47439,0.24874 0.73748,0.3026 0.2631,0.0539 0.53338,0.0911 0.77774,0.20247 0.17257,0.0787 0.3266,0.19193 0.4875,0.29234 0.16089,0.1004 0.33438,0.18999 0.52266,0.21274 0.16726,0.0202 0.3366,0 0.50507,0 l 1.01016,0 3.53553,0 c 0.33683,0 0.67447,0.0278 1.01015,0 0.69331,-0.0574 1.32923,-0.42522 2.02031,-0.50508 0.50206,-0.058 1.00983,0 1.51523,0 l 1.51522,0 c 0.25443,0 0.50848,-0.0167 0.76148,-0.0436 0.1265,-0.0135 0.25341,-0.0264 0.38061,-0.0246 0.1272,0.002 0.25572,0.0193 0.37314,0.0682 0.14313,0.0597 0.26438,0.16443 0.36016,0.28637 0.0958,0.12195 0.16754,0.26098 0.23022,0.40281 0.12535,0.28366 0.22044,0.58848 0.41978,0.82605 0.15324,0.18263 0.36055,0.31547 0.50507,0.50508 0.11451,0.15023 0.18419,0.32899 0.25246,0.50512 0.0683,0.17613 0.13801,0.35487 0.25262,0.50503 0.14458,0.18943 0.33657,0.33658 0.50507,0.50508 0.33672,0.33671 0.67344,0.67343 1.01016,1.01015 0.16836,0.16836 0.33671,0.33672 0.50507,0.50508 0.085,0.085 0.1634,0.17641 0.23729,0.2713 0.0369,0.0474 0.0743,0.0949 0.11755,0.13664 0.0433,0.0418 0.0932,0.078 0.15024,0.0971 0.0802,0.0269 0.16739,0.0193 0.25167,0.0119 0.0843,-0.007 0.16881,-0.0119 0.25341,-0.0119 l 0.50507,0"
         style="fill:none;stroke:#000000;stroke-width:1px;stroke-linecap:butt;stroke-linejoin:miter;stroke-opacity:0.16931218" />
      <path
         inkscape:connector-curvature="0"
         inkscape:original-d="m 239.40615,960.33105 c 1.17851,0 2.35702,0 3.53554,0 0.16835,0 0.33671,0 0.50507,0 0.16836,0 0.35449,0.0753 0.50508,0 0.21296,-0.10648 0.29212,-0.3986 0.50507,-0.50508 0.30117,-0.15059 0.70899,0.15058 1.01016,0 0.21296,-0.10648 0.29211,-0.3986 0.50507,-0.50508 0.15059,-0.0753 0.34536,0.0532 0.50508,0 0.35714,-0.11905 0.65301,-0.38603 1.01015,-0.50507 0.47916,-0.15972 1.02523,0.1225 1.51523,0 0.36522,-0.0913 0.64493,-0.41377 1.01015,-0.50508 0.32667,-0.0817 0.69072,0.10648 1.01016,0 0.22587,-0.0753 0.27919,-0.42978 0.50507,-0.50508 0.28732,-0.0958 2.04968,0 2.52538,0 0.52874,0 2.61973,-0.10268 3.03046,0 1.53938,0.38485 0.82344,0.82344 2.02031,2.02031 0.26619,0.2662 0.68734,0.31139 1.01015,0.50508 1.04104,0.62462 1.98941,1.39568 3.03046,2.0203 0.32281,0.19369 0.78427,0.20391 1.01015,0.50508 0.31944,0.42591 0.26698,1.03903 0.50508,1.51523 0.55837,1.11675 0.31347,0.15673 1.01015,0.50507 0.21296,0.10648 0.29211,0.3986 0.50507,0.50508 0.13281,0.0664 1.75619,0 2.02031,0 0.84179,0 1.68359,0 2.52538,0 0.16836,0 0.34536,0.0532 0.50508,0 0.35714,-0.11905 0.65301,-0.38603 1.01015,-0.50508 0.65854,-0.21951 1.36177,-0.28556 2.0203,-0.50507 0.35715,-0.11905 0.64101,-0.43125 1.01016,-0.50508 0.49526,-0.0991 1.01523,0.0714 1.51523,0 0.68718,-0.0982 1.33312,-0.40691 2.0203,-0.50508 0.5,-0.0714 1.01015,0 1.51523,0 0.84179,0 1.68359,0 2.52538,0 0.38558,0 2.71224,-0.10607 3.03046,0 1.83105,0.61035 0.35946,0.23964 1.51523,1.01016 0.31323,0.20882 0.68734,0.31138 1.01015,0.50507 0.52052,0.31231 0.97229,0.73868 1.51523,1.01015 0.47619,0.2381 1.0995,0.17249 1.51523,0.50508 0.65733,0.52586 0.7623,1.64384 1.51523,2.02031 0.15058,0.0753 0.35449,-0.0753 0.50507,0 0.42592,0.21295 0.61394,0.74601 1.01016,1.01015 2.55154,1.70103 0.0117,0.004 1.51522,0.50507 0.35715,0.11905 0.65301,0.38603 1.01016,0.50508 0.15972,0.0532 0.33671,0 0.50507,0 0.33672,0 0.67344,0 1.01016,0 1.17851,0 2.35702,0 3.53553,0 0.33672,0 0.67802,0.0554 1.01015,0 0.68472,-0.11412 1.33312,-0.40691 2.02031,-0.50508 0.5,-0.0714 1.01015,0 1.51523,0 0.50507,0 1.01015,0 1.51522,0 0.50508,0 1.02524,-0.12249 1.51523,0 0.46323,0.11581 0.88567,1.32851 1.01016,1.51523 0.13207,0.19811 0.373,0.30697 0.50507,0.50508 0.20883,0.31323 0.29626,0.69692 0.50508,1.01015 0.13207,0.19811 0.33672,0.33672 0.50507,0.50508 0.33672,0.33672 0.67344,0.67343 1.01016,1.01015 0.16836,0.16836 0.33671,0.33672 0.50507,0.50508 0.16836,0.16836 0.29212,0.39859 0.50508,0.50507 0.15058,0.0753 0.33672,0 0.50508,0 0.16835,0 0.33671,0 0.50507,0"
         inkscape:path-effect="#path-effect3944-4-5-7"
         id="path3942-5-1-1"
         d="m 239.40615,960.33105 3.53554,0 0.50507,0 c 0.0846,0 0.1691,0.004 0.25338,0.0118 0.0843,0.007 0.17139,0.0148 0.2517,-0.0118 0.0574,-0.019 0.10796,-0.0552 0.15066,-0.0979 0.0427,-0.0428 0.0781,-0.0922 0.11217,-0.14215 0.0341,-0.0499 0.0671,-0.10077 0.10575,-0.14723 0.0387,-0.0465 0.0834,-0.0888 0.13649,-0.11776 0.0757,-0.0413 0.16456,-0.0534 0.25065,-0.0487 0.0861,0.005 0.17042,0.0254 0.25411,0.0461 0.0837,0.0208 0.16787,0.0418 0.25391,0.0474 0.086,0.006 0.17499,-0.005 0.25149,-0.0448 0.0535,-0.0278 0.0992,-0.0689 0.13879,-0.1144 0.0396,-0.0455 0.0735,-0.0956 0.10794,-0.14509 0.0344,-0.0495 0.0697,-0.0988 0.11152,-0.14223 0.0418,-0.0434 0.0908,-0.0811 0.14682,-0.10336 0.079,-0.0314 0.1669,-0.0304 0.25141,-0.0218 0.0845,0.009 0.16876,0.0246 0.25367,0.0218 0.19031,-0.006 0.36425,-0.106 0.52093,-0.21422 0.15669,-0.10821 0.30887,-0.22973 0.48922,-0.29085 0.24146,-0.0818 0.50507,-0.0464 0.75704,-0.007 0.25196,0.0389 0.51368,0.0797 0.75819,0.007 0.18177,-0.0537 0.33947,-0.16587 0.49732,-0.2708 0.15784,-0.10492 0.32533,-0.20657 0.51283,-0.23428 0.16855,-0.0249 0.33916,0.012 0.50776,0.0365 0.0843,0.0123 0.16942,0.0215 0.25455,0.0184 0.0851,-0.003 0.17064,-0.019 0.24785,-0.055 0.10875,-0.0507 0.19569,-0.13847 0.27243,-0.23072 0.0767,-0.0923 0.14617,-0.19116 0.23264,-0.27436 0.15819,-0.1522 0.36774,-0.24466 0.58367,-0.28424 0.21593,-0.0396 0.43859,-0.0287 0.65535,0.006 0.43354,0.0694 0.84969,0.23262 1.28636,0.27825 0.50808,0.0531 1.01699,-0.0552 1.5234,-0.12233 0.50642,-0.0671 1.04207,-0.0892 1.50706,0.12233 0.43719,0.19888 0.76054,0.58066 1.05142,0.96287 0.29088,0.3822 0.57315,0.78526 0.96889,1.05744 0.31057,0.2136 0.67407,0.3344 1.01015,0.50508 0.54351,0.27603 1.00971,0.67937 1.48344,1.06301 0.47372,0.38365 0.97122,0.75716 1.54702,0.95729 0.18085,0.0629 0.36786,0.10798 0.54545,0.17954 0.17758,0.0716 0.34888,0.17308 0.4647,0.32554 0.0818,0.10767 0.13243,0.23628 0.16494,0.36753 0.0325,0.13126 0.0477,0.26606 0.065,0.40018 0.0172,0.13412 0.0367,0.26868 0.0773,0.39767 0.0406,0.12899 0.10341,0.25311 0.19789,0.34985 0.13255,0.13571 0.3159,0.20751 0.49527,0.26927 0.17937,0.0617 0.36501,0.1195 0.51488,0.2358 0.0943,0.0732 0.17051,0.16669 0.24768,0.25782 0.0772,0.0911 0.15749,0.18186 0.25739,0.24726 0.14313,0.0937 0.3177,0.12935 0.48873,0.13324 0.17103,0.004 0.34126,-0.0214 0.5103,-0.0478 0.33806,-0.0527 0.67913,-0.0855 1.02128,-0.0855 l 2.52538,0 c 0.16847,0 0.33772,0.0193 0.50508,0 0.18852,-0.0217 0.36368,-0.10767 0.52561,-0.20665 0.16192,-0.099 0.31534,-0.21248 0.48454,-0.29843 0.31067,-0.15781 0.66096,-0.21625 1.00562,-0.26749 0.34467,-0.0512 0.69511,-0.0987 1.01468,-0.23758 0.34607,-0.15041 0.64652,-0.4043 1.01016,-0.50508 0.24448,-0.0678 0.50306,-0.0618 0.75594,-0.0415 0.25288,0.0203 0.50593,0.0545 0.75929,0.0415 0.34757,-0.0179 0.68394,-0.12401 1.01381,-0.23495 0.32988,-0.11093 0.66099,-0.2283 1.00649,-0.27013 0.50176,-0.0607 1.0098,0 1.51523,0 l 2.52538,0 c 0.50789,0 1.01524,-0.0288 1.52099,-0.0754 0.50575,-0.0466 1.03081,-0.0945 1.50947,0.0754 0.28714,0.10188 0.54075,0.27963 0.78101,0.46698 0.24027,0.18735 0.47246,0.38727 0.73422,0.54318 0.3236,0.19274 0.68552,0.31407 1.01015,0.50507 0.26244,0.15441 0.49637,0.35187 0.73716,0.53826 0.24078,0.18638 0.49317,0.36443 0.77807,0.47189 0.2513,0.0948 0.51993,0.13171 0.78208,0.19013 0.26215,0.0584 0.52696,0.14284 0.73315,0.31495 0.16866,0.14079 0.28799,0.33236 0.37983,0.53195 0.0918,0.19959 0.15877,0.40959 0.24104,0.61331 0.0823,0.20372 0.1818,0.40402 0.32879,0.5673 0.147,0.16328 0.3468,0.28754 0.56557,0.30775 0.168,0.0155 0.33903,-0.0299 0.50507,0 0.1199,0.0216 0.23052,0.082 0.32395,0.16021 0.0934,0.0782 0.1708,0.17382 0.24106,0.27336 0.14051,0.19908 0.25839,0.42007 0.44515,0.57658 0.20583,0.1725 0.47439,0.24874 0.73748,0.3026 0.2631,0.0539 0.53338,0.0911 0.77774,0.20247 0.17257,0.0787 0.3266,0.19193 0.4875,0.29234 0.16089,0.1004 0.33438,0.18999 0.52266,0.21274 0.16726,0.0202 0.3366,0 0.50507,0 l 1.01016,0 3.53553,0 c 0.33683,0 0.67447,0.0278 1.01015,0 0.69331,-0.0574 1.32923,-0.42522 2.02031,-0.50508 0.50206,-0.058 1.00983,0 1.51523,0 l 1.51522,0 c 0.25443,0 0.50848,-0.0167 0.76148,-0.0437 0.1265,-0.0135 0.25341,-0.0264 0.38061,-0.0246 0.1272,0.002 0.25572,0.0193 0.37314,0.0682 0.14313,0.0596 0.26438,0.16443 0.36016,0.28637 0.0958,0.12195 0.16754,0.26098 0.23022,0.40281 0.12535,0.28366 0.22044,0.58848 0.41978,0.82605 0.15324,0.18263 0.36055,0.31547 0.50507,0.50508 0.11451,0.15023 0.18419,0.32899 0.25246,0.50512 0.0683,0.17613 0.13801,0.35487 0.25262,0.50503 0.14458,0.18943 0.33657,0.33658 0.50507,0.50508 0.33672,0.33671 0.67344,0.67343 1.01016,1.01015 0.16836,0.16836 0.33671,0.33672 0.50507,0.50508 0.085,0.085 0.1634,0.17641 0.23729,0.2713 0.0369,0.0474 0.0743,0.0949 0.11755,0.13664 0.0433,0.0418 0.0932,0.078 0.15024,0.0971 0.0802,0.0269 0.16739,0.0193 0.25167,0.0119 0.0843,-0.007 0.16881,-0.0119 0.25341,-0.0119 l 0.50507,0"
         style="fill:none;stroke:#000000;stroke-width:1px;stroke-linecap:butt;stroke-linejoin:miter;stroke-opacity:0.16931218" />
      <path
         inkscape:connector-curvature="0"
         inkscape:original-d="m 235.87062,974.47319 c 1.17851,0 2.35702,0 3.53554,0 0.16835,0 0.33671,0 0.50507,0 0.16836,0 0.35449,0.0753 0.50508,0 0.21296,-0.10648 0.29212,-0.3986 0.50507,-0.50508 0.30117,-0.15059 0.70899,0.15058 1.01016,0 0.21296,-0.10648 0.29211,-0.3986 0.50507,-0.50508 0.15059,-0.0753 0.34536,0.0532 0.50508,0 0.35714,-0.11905 0.65301,-0.38603 1.01015,-0.50507 0.47916,-0.15972 1.02523,0.1225 1.51523,0 0.36522,-0.0913 0.64493,-0.41377 1.01015,-0.50508 0.32667,-0.0817 0.69072,0.10648 1.01016,0 0.22587,-0.0753 0.27919,-0.42978 0.50507,-0.50508 0.28732,-0.0958 2.04968,0 2.52538,0 0.52874,0 2.61973,-0.10268 3.03046,0 1.53938,0.38485 0.82344,0.82344 2.02031,2.02031 0.26619,0.2662 0.68734,0.31139 1.01015,0.50508 1.04104,0.62462 1.98941,1.39568 3.03046,2.0203 0.32281,0.19369 0.78427,0.20391 1.01015,0.50508 0.31944,0.42591 0.26698,1.03903 0.50508,1.51523 0.55837,1.11675 0.31347,0.15673 1.01015,0.50507 0.21296,0.10648 0.29211,0.3986 0.50507,0.50508 0.13281,0.0664 1.75619,0 2.02031,0 0.84179,0 1.68359,0 2.52538,0 0.16836,0 0.34536,0.0532 0.50508,0 0.35714,-0.11905 0.65301,-0.38603 1.01015,-0.50508 0.65854,-0.21951 1.36177,-0.28556 2.0203,-0.50507 0.35715,-0.11905 0.64101,-0.43125 1.01016,-0.50508 0.49526,-0.0991 1.01523,0.0714 1.51523,0 0.68718,-0.0982 1.33312,-0.40691 2.0203,-0.50508 0.5,-0.0714 1.01015,0 1.51523,0 0.84179,0 1.68359,0 2.52538,0 0.38558,0 2.71224,-0.10607 3.03046,0 1.83105,0.61035 0.35946,0.23964 1.51523,1.01016 0.31323,0.20882 0.68734,0.31138 1.01015,0.50507 0.52052,0.31231 0.97229,0.73868 1.51523,1.01015 0.47619,0.2381 1.0995,0.17249 1.51523,0.50508 0.65733,0.52586 0.7623,1.64384 1.51523,2.02031 0.15058,0.0753 0.35449,-0.0753 0.50507,0 0.42592,0.21295 0.61394,0.74601 1.01016,1.01015 2.55154,1.70103 0.0117,0.004 1.51522,0.50507 0.35715,0.11905 0.65301,0.38603 1.01016,0.50508 0.15972,0.0532 0.33671,0 0.50507,0 0.33672,0 0.67344,0 1.01016,0 1.17851,0 2.35702,0 3.53553,0 0.33672,0 0.67802,0.0554 1.01015,0 0.68472,-0.11412 1.33312,-0.40691 2.02031,-0.50508 0.5,-0.0714 1.01015,0 1.51523,0 0.50507,0 1.01015,0 1.51522,0 0.50508,0 1.02524,-0.12249 1.51523,0 0.46323,0.11581 0.88567,1.32851 1.01016,1.51523 0.13207,0.19811 0.373,0.30697 0.50507,0.50508 0.20883,0.31323 0.29626,0.69692 0.50508,1.01015 0.13207,0.19811 0.33672,0.33672 0.50507,0.50508 0.33672,0.33672 0.67344,0.67343 1.01016,1.01015 0.16836,0.16836 0.33671,0.33672 0.50507,0.50508 0.16836,0.16836 0.29212,0.39859 0.50508,0.50507 0.15058,0.0753 0.33672,0 0.50508,0 0.16835,0 0.33671,0 0.50507,0"
         inkscape:path-effect="#path-effect3944-4-5-7-1"
         id="path3942-5-1-1-5"
         d="m 235.87062,974.47319 3.53554,0 0.50507,0 c 0.0846,0 0.1691,0.004 0.25338,0.0118 0.0843,0.007 0.17139,0.0148 0.2517,-0.0118 0.0574,-0.019 0.10796,-0.0552 0.15066,-0.0979 0.0427,-0.0428 0.0781,-0.0922 0.11217,-0.14215 0.0341,-0.0499 0.0671,-0.10077 0.10575,-0.14723 0.0387,-0.0465 0.0834,-0.0888 0.13649,-0.11776 0.0757,-0.0413 0.16456,-0.0534 0.25065,-0.0487 0.0861,0.005 0.17042,0.0254 0.25411,0.0461 0.0837,0.0208 0.16787,0.0418 0.25391,0.0474 0.086,0.006 0.17499,-0.005 0.25149,-0.0448 0.0535,-0.0278 0.0992,-0.0689 0.13879,-0.1144 0.0396,-0.0455 0.0735,-0.0956 0.10794,-0.14509 0.0344,-0.0495 0.0697,-0.0988 0.11152,-0.14223 0.0418,-0.0434 0.0908,-0.0811 0.14682,-0.10336 0.079,-0.0314 0.1669,-0.0304 0.25141,-0.0218 0.0845,0.009 0.16876,0.0246 0.25367,0.0218 0.19031,-0.006 0.36425,-0.106 0.52093,-0.21422 0.15669,-0.10821 0.30887,-0.22973 0.48922,-0.29085 0.24146,-0.0818 0.50507,-0.0463 0.75704,-0.007 0.25196,0.0389 0.51368,0.0797 0.75819,0.007 0.18177,-0.0537 0.33947,-0.16587 0.49732,-0.2708 0.15784,-0.10492 0.32533,-0.20657 0.51283,-0.23428 0.16855,-0.0249 0.33916,0.012 0.50776,0.0365 0.0843,0.0123 0.16942,0.0215 0.25455,0.0184 0.0851,-0.003 0.17064,-0.019 0.24785,-0.055 0.10875,-0.0507 0.19569,-0.13847 0.27243,-0.23072 0.0767,-0.0923 0.14617,-0.19116 0.23264,-0.27436 0.15819,-0.1522 0.36774,-0.24466 0.58367,-0.28424 0.21593,-0.0396 0.43859,-0.0287 0.65535,0.006 0.43354,0.0694 0.84969,0.23262 1.28636,0.27825 0.50808,0.0531 1.01699,-0.0552 1.5234,-0.12233 0.50642,-0.0671 1.04207,-0.0892 1.50706,0.12233 0.43719,0.19888 0.76054,0.58066 1.05142,0.96287 0.29088,0.3822 0.57315,0.78526 0.96889,1.05744 0.31057,0.2136 0.67407,0.3344 1.01015,0.50508 0.54351,0.27603 1.00971,0.67937 1.48344,1.06301 0.47372,0.38365 0.97122,0.75716 1.54702,0.95729 0.18085,0.0629 0.36786,0.10798 0.54545,0.17954 0.17758,0.0716 0.34888,0.17308 0.4647,0.32554 0.0818,0.10767 0.13243,0.23628 0.16494,0.36753 0.0325,0.13126 0.0477,0.26606 0.065,0.40018 0.0172,0.13412 0.0367,0.26868 0.0773,0.39767 0.0406,0.12899 0.10341,0.25311 0.19789,0.34985 0.13255,0.13571 0.3159,0.20751 0.49527,0.26927 0.17937,0.0618 0.36501,0.1195 0.51488,0.2358 0.0943,0.0732 0.17051,0.16669 0.24768,0.25782 0.0772,0.0911 0.15749,0.18186 0.25739,0.24726 0.14313,0.0937 0.3177,0.12935 0.48873,0.13324 0.17103,0.004 0.34126,-0.0214 0.5103,-0.0478 0.33806,-0.0527 0.67913,-0.0855 1.02128,-0.0855 l 2.52538,0 c 0.16847,0 0.33772,0.0193 0.50508,0 0.18852,-0.0217 0.36368,-0.10767 0.52561,-0.20665 0.16192,-0.099 0.31534,-0.21248 0.48454,-0.29843 0.31067,-0.15781 0.66096,-0.21625 1.00562,-0.26749 0.34467,-0.0512 0.69511,-0.0987 1.01468,-0.23758 0.34607,-0.15041 0.64652,-0.4043 1.01016,-0.50508 0.24448,-0.0678 0.50306,-0.0618 0.75594,-0.0415 0.25288,0.0203 0.50593,0.0545 0.75929,0.0415 0.34757,-0.0179 0.68394,-0.12401 1.01381,-0.23495 0.32988,-0.11093 0.66099,-0.2283 1.00649,-0.27013 0.50176,-0.0607 1.0098,0 1.51523,0 l 2.52538,0 c 0.50789,0 1.01524,-0.0288 1.52099,-0.0754 0.50575,-0.0466 1.03081,-0.0945 1.50947,0.0754 0.28714,0.10188 0.54075,0.27963 0.78101,0.46698 0.24027,0.18735 0.47246,0.38727 0.73422,0.54318 0.3236,0.19274 0.68552,0.31407 1.01015,0.50507 0.26244,0.15441 0.49637,0.35187 0.73716,0.53826 0.24078,0.18638 0.49317,0.36443 0.77807,0.47189 0.2513,0.0948 0.51993,0.13171 0.78208,0.19013 0.26215,0.0584 0.52696,0.14284 0.73315,0.31495 0.16866,0.14079 0.28799,0.33236 0.37983,0.53195 0.0918,0.19959 0.15877,0.40959 0.24104,0.61331 0.0823,0.20372 0.1818,0.40402 0.32879,0.5673 0.147,0.16328 0.3468,0.28754 0.56557,0.30775 0.168,0.0155 0.33903,-0.0299 0.50507,0 0.1199,0.0216 0.23052,0.082 0.32395,0.16021 0.0934,0.0782 0.1708,0.17382 0.24106,0.27336 0.14051,0.19908 0.25839,0.42007 0.44515,0.57658 0.20583,0.1725 0.47439,0.24874 0.73748,0.3026 0.2631,0.0539 0.53338,0.0911 0.77774,0.20247 0.17257,0.0787 0.3266,0.19193 0.4875,0.29234 0.16089,0.1004 0.33438,0.18999 0.52266,0.21274 0.16726,0.0202 0.3366,0 0.50507,0 l 1.01016,0 3.53553,0 c 0.33683,0 0.67447,0.0278 1.01015,0 0.69331,-0.0574 1.32923,-0.42522 2.02031,-0.50508 0.50206,-0.058 1.00983,0 1.51523,0 l 1.51522,0 c 0.25443,0 0.50848,-0.0167 0.76148,-0.0436 0.1265,-0.0135 0.25341,-0.0264 0.38061,-0.0246 0.1272,0.002 0.25572,0.0193 0.37314,0.0682 0.14313,0.0597 0.26438,0.16443 0.36016,0.28637 0.0958,0.12195 0.16754,0.26098 0.23022,0.40281 0.12535,0.28366 0.22044,0.58848 0.41978,0.82605 0.15324,0.18263 0.36055,0.31547 0.50507,0.50508 0.11451,0.15023 0.18419,0.32899 0.25246,0.50512 0.0683,0.17613 0.13801,0.35487 0.25262,0.50503 0.14458,0.18943 0.33657,0.33658 0.50507,0.50508 0.33672,0.33671 0.67344,0.67343 1.01016,1.01015 0.16836,0.16836 0.33671,0.33672 0.50507,0.50508 0.085,0.085 0.1634,0.17641 0.23729,0.2713 0.0369,0.0474 0.0743,0.0949 0.11755,0.13664 0.0433,0.0418 0.0932,0.078 0.15024,0.0971 0.0802,0.0269 0.16739,0.0193 0.25167,0.0119 0.0843,-0.007 0.16881,-0.0119 0.25341,-0.0119 l 0.50507,0"
         style="fill:none;stroke:#000000;stroke-width:1px;stroke-linecap:butt;stroke-linejoin:miter;stroke-opacity:0.16931218" />
      <path
         inkscape:connector-curvature="0"
         inkscape:original-d="m 381.84775,936.65807 c 1.16577,-0.17281 2.33154,-0.34563 3.49732,-0.51844 0.16653,-0.0247 0.33307,-0.0494 0.49961,-0.0741 0.16654,-0.0247 0.3617,0.0225 0.49962,-0.0741 0.19505,-0.13656 0.23052,-0.43713 0.42555,-0.57368 0.27583,-0.19313 0.72341,0.045 0.99924,-0.14813 0.19504,-0.13656 0.2305,-0.43713 0.42555,-0.57368 0.13792,-0.0966 0.34942,0.002 0.49962,-0.0741 0.33582,-0.17013 0.58934,-0.47761 0.92516,-0.64774 0.45056,-0.22825 1.03212,-0.0292 1.49886,-0.22219 0.34788,-0.14386 0.57728,-0.50386 0.92516,-0.64774 0.31116,-0.12872 0.69887,0.004 0.99924,-0.14813 0.21239,-0.10761 0.21315,-0.46608 0.42555,-0.57368 0.27016,-0.1369 2.02752,-0.30057 2.49808,-0.37032 0.52302,-0.0775 2.57635,-0.48572 2.9977,-0.44438 1.57917,0.15496 0.93529,0.69379 2.29473,1.70221 0.30234,0.22429 0.72557,0.20724 1.07329,0.3515 1.12138,0.46521 2.17257,1.08887 3.29396,1.55408 0.34772,0.14426 0.80569,0.0867 1.07329,0.35149 0.37844,0.37446 0.41646,0.98865 0.72181,1.42479 0.71609,1.0228 0.33306,0.10907 1.07329,0.35148 0.22628,0.0741 0.34741,0.35146 0.57368,0.42556 0.14111,0.0462 1.7372,-0.25753 1.99847,-0.29626 0.83269,-0.12343 1.66539,-0.24687 2.49808,-0.37031 0.16654,-0.0247 0.34943,0.002 0.49962,-0.0741 0.33582,-0.17013 0.58934,-0.47761 0.92517,-0.64774 0.61923,-0.31371 1.30517,-0.48217 1.9244,-0.79587 0.33583,-0.17013 0.57084,-0.52058 0.92517,-0.64775 0.47538,-0.17065 1.01473,-0.0782 1.49885,-0.22219 0.66535,-0.1979 1.25904,-0.59799 1.9244,-0.79587 0.48412,-0.14395 0.99923,-0.14813 1.49885,-0.22219 0.83269,-0.12344 1.66539,-0.24688 2.49808,-0.37032 0.38141,-0.0565 2.66737,-0.50264 2.9977,-0.44438 1.90076,0.33525 0.39072,0.18434 1.64698,0.77705 0.34047,0.16063 0.72557,0.20722 1.07329,0.35148 0.56069,0.23261 1.0701,0.58812 1.64698,0.77704 0.50596,0.1657 1.11291,0.009 1.57292,0.27743 0.72733,0.42379 0.99511,1.51429 1.7951,1.77628 0.16,0.0524 0.33962,-0.12646 0.49961,-0.0741 0.45254,0.14819 0.7167,0.64792 1.14737,0.8511 2.77339,1.30849 0.0122,0.002 1.5729,0.27742 0.37075,0.0654 0.70256,0.28611 1.07331,0.3515 0.16579,0.0292 0.33307,-0.0494 0.49961,-0.0741 0.33308,-0.0494 0.66616,-0.0988 0.99924,-0.14812 1.16577,-0.17282 2.33154,-0.34563 3.49731,-0.51845 0.33308,-0.0494 0.67881,-0.0446 0.99923,-0.14812 0.66058,-0.2133 1.25904,-0.598 1.92441,-0.79588 0.48412,-0.14395 0.99923,-0.14813 1.49885,-0.22219 0.49961,-0.0741 0.99923,-0.14813 1.49884,-0.22219 0.49962,-0.0741 0.99619,-0.2715 1.49885,-0.22219 0.4752,0.0466 1.0709,1.18428 1.22143,1.35072 0.15969,0.1766 0.41398,0.24896 0.57367,0.42556 0.25251,0.27922 0.39526,0.64594 0.64775,0.92517 0.15969,0.1766 0.38246,0.2837 0.57367,0.42555 0.38246,0.28371 0.76492,0.5674 1.14737,0.85111 0.19123,0.14185 0.38245,0.2837 0.57368,0.42555 0.19122,0.14186 0.34741,0.35145 0.57368,0.42555 0.15999,0.0524 0.33308,-0.0494 0.49962,-0.0741 0.16653,-0.0247 0.33307,-0.0494 0.49961,-0.0741"
         inkscape:path-effect="#path-effect3944-4-5-7-1-2"
         id="path3942-5-1-1-5-7"
         d="m 381.84775,936.65807 c 1.16578,-0.17274 2.33156,-0.34555 3.49732,-0.51844 0.16654,-0.0247 0.33307,-0.0494 0.49961,-0.0741 0.0837,-0.0124 0.16793,-0.0204 0.25237,-0.0255 0.0844,-0.005 0.1717,-0.0105 0.24725,-0.0486 0.054,-0.0272 0.0987,-0.0704 0.13467,-0.11898 0.036,-0.0486 0.0637,-0.10267 0.0901,-0.15706 0.0264,-0.0544 0.0516,-0.10951 0.083,-0.16114 0.0314,-0.0516 0.0695,-0.10005 0.11775,-0.1365 0.0688,-0.052 0.15495,-0.077 0.2408,-0.0849 0.0858,-0.008 0.1723,9e-5 0.25812,0.008 0.0858,0.008 0.17219,0.0168 0.25812,0.01 0.0859,-0.007 0.17235,-0.0307 0.2422,-0.0812 0.0489,-0.0354 0.088,-0.0827 0.12052,-0.13352 0.0325,-0.0508 0.0587,-0.10531 0.0855,-0.15934 0.0268,-0.054 0.0544,-0.10794 0.0895,-0.15704 0.035,-0.0491 0.0779,-0.0935 0.13007,-0.12378 0.0735,-0.0426 0.16063,-0.0546 0.2455,-0.0584 0.0849,-0.004 0.17055,-4e-4 0.25412,-0.0157 0.18731,-0.0343 0.34476,-0.15828 0.48388,-0.2883 0.13912,-0.13002 0.27185,-0.27254 0.44128,-0.35944 0.22685,-0.11635 0.49282,-0.11991 0.74776,-0.11841 0.25494,0.001 0.51982,0.004 0.7511,-0.10378 0.17194,-0.0797 0.31148,-0.21386 0.45223,-0.34079 0.14075,-0.12693 0.29153,-0.25204 0.47293,-0.30695 0.16308,-0.0494 0.33725,-0.0379 0.50763,-0.0383 0.0852,-2e-4 0.17074,-0.004 0.2545,-0.0191 0.0838,-0.0156 0.16601,-0.0438 0.23711,-0.0907 0.10014,-0.0661 0.17327,-0.16567 0.23565,-0.26817 0.0624,-0.10251 0.11657,-0.21053 0.1899,-0.30551 0.13416,-0.17376 0.32789,-0.29594 0.53568,-0.36675 0.20779,-0.0708 0.42964,-0.0927 0.64915,-0.0902 0.43902,0.005 0.87461,0.10551 1.31325,0.0866 0.51037,-0.022 0.9979,-0.20372 1.489,-0.34439 0.49109,-0.14067 1.01772,-0.24104 1.5087,-0.1 0.46163,0.13262 0.83747,0.46286 1.18125,0.79827 0.34379,0.33542 0.68211,0.69273 1.11348,0.90394 0.33853,0.16575 0.71582,0.23194 1.07329,0.3515 0.57811,0.19335 1.09842,0.52396 1.62328,0.834 0.52486,0.31003 1.07176,0.60655 1.67068,0.72008 0.18811,0.0357 0.37971,0.0529 0.56587,0.0976 0.18616,0.0447 0.37049,0.12006 0.50742,0.25388 0.0967,0.0945 0.16565,0.2143 0.21705,0.33937 0.0514,0.12508 0.0862,0.25619 0.12295,0.38633 0.0367,0.13014 0.0757,0.26039 0.13476,0.38204 0.0591,0.12165 0.1394,0.23522 0.24705,0.31705 0.15102,0.11481 0.34292,0.15894 0.5294,0.19373 0.18649,0.0348 0.37858,0.0647 0.54389,0.15775 0.10405,0.0586 0.19311,0.13989 0.28281,0.21871 0.0897,0.0788 0.18246,0.1568 0.29087,0.20685 0.15532,0.0717 0.33324,0.0814 0.50299,0.0601 0.16975,-0.0212 0.33443,-0.0712 0.49777,-0.12208 0.32668,-0.1017 0.65926,-0.18414 0.99771,-0.23431 l 2.49808,-0.37031 c 0.16665,-0.0247 0.33691,-0.0304 0.49962,-0.0741 0.18329,-0.0492 0.34395,-0.15986 0.48961,-0.2815 0.14566,-0.12164 0.28079,-0.25642 0.43556,-0.36624 0.28418,-0.20165 0.62211,-0.31082 0.95554,-0.41205 0.33342,-0.10124 0.67311,-0.19956 0.96886,-0.38382 0.32027,-0.19954 0.58024,-0.49473 0.92517,-0.64775 0.2319,-0.10288 0.48856,-0.1349 0.74169,-0.15188 0.25313,-0.017 0.50845,-0.0203 0.75716,-0.0703 0.34118,-0.0687 0.65836,-0.22296 0.9684,-0.38107 0.31004,-0.1581 0.62036,-0.32276 0.956,-0.4148 0.48743,-0.13367 0.99889,-0.14807 1.49885,-0.22219 l 2.49808,-0.37032 c 0.5024,-0.0745 1.00004,-0.17734 1.49349,-0.29759 0.49346,-0.12025 1.00582,-0.2446 1.50421,-0.14679 0.29897,0.0587 0.57591,0.19731 0.84105,0.3474 0.26514,0.1501 0.52414,0.31381 0.80593,0.42965 0.34836,0.14321 0.72416,0.21015 1.07329,0.35148 0.28224,0.11426 0.5426,0.27528 0.80812,0.42434 0.26551,0.14906 0.54128,0.28817 0.83886,0.3527 0.26248,0.0569 0.53362,0.0541 0.80151,0.0734 0.26788,0.0194 0.54221,0.064 0.77141,0.20403 0.18749,0.11453 0.33362,0.28652 0.45374,0.47048 0.12012,0.18395 0.21713,0.38186 0.32839,0.5713 0.11126,0.18945 0.23908,0.37298 0.40842,0.51295 0.16934,0.13997 0.38518,0.2336 0.60455,0.22155 0.16846,-0.009 0.33097,-0.0793 0.49961,-0.0741 0.12179,0.004 0.24012,0.0471 0.3441,0.11063 0.10397,0.0635 0.19464,0.14666 0.27881,0.23477 0.16833,0.1762 0.31721,0.37751 0.52446,0.5057 0.22843,0.14129 0.50497,0.17927 0.77312,0.19471 0.26815,0.0154 0.54065,0.0121 0.79978,0.0827 0.1826,0.0498 0.35316,0.13499 0.5273,0.20916 0.17413,0.0742 0.35678,0.1384 0.54601,0.14234 0.16872,0.004 0.33414,-0.041 0.49961,-0.0741 0.33021,-0.0661 0.66612,-0.0987 0.99924,-0.14812 l 3.49731,-0.51845 c 0.33317,-0.0494 0.67081,-0.0734 0.99923,-0.14812 0.67816,-0.15423 1.26169,-0.58495 1.92441,-0.79588 0.48251,-0.15357 0.99374,-0.18661 1.49885,-0.22219 0.50494,-0.0356 1.01434,-0.0756 1.49884,-0.22219 0.24706,-0.0747 0.48588,-0.17672 0.73673,-0.23755 0.25084,-0.0608 0.52156,-0.0782 0.76212,0.0154 0.14335,0.0558 0.27013,0.14882 0.37865,0.25782 0.10852,0.109 0.19973,0.23393 0.28507,0.36189 0.17069,0.25593 0.32393,0.53106 0.55771,0.73101 0.18118,0.15496 0.40386,0.25822 0.57367,0.42556 0.13453,0.13258 0.22951,0.29912 0.32306,0.46321 0.0935,0.16409 0.18919,0.33037 0.32469,0.46196 0.17094,0.16602 0.38228,0.28358 0.57367,0.42555 0.38246,0.2837 0.76491,0.56741 1.14737,0.85111 0.19123,0.14185 0.38245,0.2837 0.57368,0.42555 0.0966,0.0716 0.18751,0.15054 0.27451,0.23357 0.0435,0.0415 0.0874,0.0829 0.13631,0.11793 0.0489,0.035 0.10367,0.0635 0.16286,0.0741 0.0833,0.0149 0.16842,-0.005 0.2507,-0.0251 0.0823,-0.0197 0.16523,-0.0366 0.24892,-0.049 l 0.49961,-0.0741"
         style="fill:none;stroke:#000000;stroke-width:1px;stroke-linecap:butt;stroke-linejoin:miter;stroke-opacity:0.16931218" />
      <path
         sodipodi:nodetypes="ccccsccccccccsccsccscccccscc"
         inkscape:connector-curvature="0"
         inkscape:original-d="m 372.29851,955.85181 c 1.15187,-0.24914 2.30375,-0.49829 3.45563,-0.74744 0.16454,-0.0356 0.3291,-0.0712 0.49365,-0.10677 0.16456,-0.0356 0.3624,-0.001 0.49367,-0.10678 0.18563,-0.1491 0.20125,-0.45135 0.38687,-0.60044 0.26253,-0.21086 0.7248,-0.003 0.98733,-0.21356 0.18564,-0.14909 0.20124,-0.45134 0.38688,-0.60043 0.13127,-0.10544 0.3488,-0.021 0.49366,-0.10678 0.3239,-0.19186 0.55664,-0.51536 0.88055,-0.70721 0.43456,-0.25741 1.02795,-0.097 1.48098,-0.32033 0.33766,-0.16645 0.54288,-0.54076 0.88054,-0.70722 0.30202,-0.14891 0.69762,-0.042 0.98733,-0.21355 0.20485,-0.12135 0.18202,-0.47909 0.38688,-0.60044 0.26057,-0.15438 2.00335,-0.43332 2.4683,-0.53389 0.51679,-0.11178 2.53881,-0.65418 2.96196,-0.64066 1.58595,0.0507 0.97891,0.63075 2.40176,1.54754 0.31645,0.20391 0.73763,0.15905 1.09409,0.28011 1.14956,0.39042 2.23951,0.94356 3.38908,1.33398 0.35646,0.12107 0.80965,0.0335 1.09409,0.28011 0.40226,0.34875 0.48061,0.95911 0.814,1.37421 0.78184,0.97346 0.33952,0.0869 1.09409,0.2801 0.23066,0.059 0.36978,0.32783 0.60043,0.38689 0.14385,0.0368 1.7165,-0.37127 1.97465,-0.42711 0.82276,-0.17796 1.64554,-0.35592 2.4683,-0.53389 0.16456,-0.0356 0.3488,-0.021 0.49367,-0.10677 0.3239,-0.19186 0.55664,-0.51536 0.88054,-0.70722 0.59725,-0.35377 1.27062,-0.56699 1.86786,-0.92076 0.32391,-0.19186 0.53535,-0.55702 0.88055,-0.70722"
         inkscape:path-effect="#path-effect3944-4-5-7-1-2-6"
         id="path3942-5-1-1-5-7-1"
         d="m 372.29851,955.85181 3.45563,-0.74744 c 0.16461,-0.0356 0.32654,-0.0858 0.49365,-0.10677 0.0847,-0.0106 0.17034,-0.0111 0.25491,-0.0224 0.0846,-0.0112 0.16983,-0.0342 0.23876,-0.0844 0.0487,-0.0355 0.0873,-0.0833 0.11846,-0.13485 0.0312,-0.0515 0.0552,-0.107 0.0788,-0.16242 0.0472,-0.11084 0.0963,-0.22705 0.18962,-0.30317 0.0668,-0.0544 0.15123,-0.0835 0.23638,-0.0965 0.0851,-0.0129 0.17178,-0.0107 0.25788,-0.009 0.0861,0.002 0.17277,0.004 0.25782,-0.01 0.0851,-0.0136 0.16929,-0.0436 0.23525,-0.099 0.0462,-0.0388 0.082,-0.0887 0.11096,-0.14157 0.029,-0.0529 0.0516,-0.10897 0.0748,-0.16461 0.0233,-0.0556 0.0474,-0.1112 0.0792,-0.16243 0.0318,-0.0512 0.0718,-0.0983 0.12189,-0.13182 0.0706,-0.0472 0.15673,-0.0649 0.24116,-0.0743 0.0844,-0.009 0.17013,-0.0117 0.2525,-0.0325 0.18463,-0.0466 0.33355,-0.1807 0.46383,-0.31958 0.13027,-0.13888 0.25336,-0.28979 0.41672,-0.38763 0.21872,-0.13099 0.48387,-0.15203 0.73835,-0.16732 0.25449,-0.0153 0.51892,-0.0307 0.74263,-0.15301 0.16631,-0.0909 0.29673,-0.2339 0.42882,-0.36982 0.1321,-0.13592 0.27432,-0.27067 0.45172,-0.3374 0.15948,-0.06 0.33402,-0.06 0.50401,-0.0716 0.085,-0.006 0.17014,-0.0148 0.25269,-0.0358 0.0825,-0.0211 0.16277,-0.0546 0.23063,-0.10612 0.0956,-0.0725 0.16199,-0.17671 0.21749,-0.2831 0.0555,-0.10638 0.10246,-0.21774 0.16939,-0.31734 0.12244,-0.18221 0.30771,-0.31687 0.51039,-0.40121 0.20268,-0.0843 0.4226,-0.12077 0.6418,-0.13269 0.4384,-0.0238 0.87966,0.0477 1.31611,10e-6 0.50782,-0.0555 0.98234,-0.26894 1.46311,-0.44162 0.48077,-0.17267 0.99965,-0.30748 1.49885,-0.19904 0.46936,0.10196 0.86611,0.40675 1.23122,0.71882 0.36511,0.31208 0.7262,0.64636 1.17054,0.82872 0.34871,0.14312 0.72953,0.18434 1.09409,0.28011 0.58958,0.15489 1.13052,0.45055 1.67464,0.72538 0.54412,0.27482 1.10934,0.53472 1.71444,0.6086 0.19005,0.0232 0.38237,0.0278 0.57107,0.0602 0.1887,0.0324 0.37759,0.0954 0.52302,0.21994 0.10272,0.088 0.17939,0.20294 0.23891,0.32436 0.0595,0.12142 0.10291,0.24995 0.14811,0.3774 0.0452,0.12744 0.0927,0.25485 0.1596,0.37234 0.0669,0.1175 0.15458,0.22554 0.26738,0.30011 0.15825,0.10462 0.35263,0.13603 0.541,0.15847 0.18837,0.0224 0.38202,0.0396 0.55309,0.12163 0.10768,0.0516 0.2019,0.12688 0.29658,0.19963 0.0947,0.0727 0.19238,0.14446 0.30385,0.18726 0.1597,0.0613 0.33787,0.0593 0.50585,0.0269 0.16799,-0.0323 0.32903,-0.0931 0.48867,-0.15457 0.31928,-0.12297 0.64572,-0.22712 0.98013,-0.29945 l 2.4683,-0.53389 c 0.16465,-0.0356 0.33402,-0.053 0.49367,-0.10677 0.17993,-0.0606 0.33427,-0.17987 0.47232,-0.31021 0.13806,-0.13034 0.26373,-0.27384 0.40822,-0.39701 0.26516,-0.22603 0.58551,-0.37677 0.90829,-0.50799 0.32277,-0.13121 0.65353,-0.24622 0.95957,-0.41277 0.33243,-0.18091 0.63218,-0.42165 0.88055,-0.70722"
         style="fill:none;stroke:#000000;stroke-width:1px;stroke-linecap:butt;stroke-linejoin:miter;stroke-opacity:0.16931218" />
    </g>
    <g
       id="g4072"
       transform="matrix(-0.81741176,0.57605383,-0.57605383,-0.81741176,1068.1579,1379.7601)">
      <rect
         y="823.99109"
         x="168.50114"
         height="10.759981"
         width="162.51819"
         id="rect3009"
         style="fill:#ffe000;fill-opacity:1;stroke:none" />
      <path
         inkscape:connector-curvature="0"
         inkscape:original-d="m 331.04069,824.50261 29.72094,4.85285 -29.34788,5.29642 z"
         inkscape:path-effect="#path-effect3783"
         id="path3781"
         d="m 331.04069,824.50261 29.72094,4.85285 -29.34788,5.29642 -0.37306,-10.14927"
         style="fill:#bd791e;fill-opacity:1;stroke:none" />
      <path
         inkscape:connector-curvature="0"
         inkscape:original-d="m 352.83438,828.08443 9.01416,1.47184 -8.90101,1.60637 z"
         inkscape:path-effect="#path-effect3783-1"
         id="path3781-7"
         d="m 352.83438,828.08443 9.01416,1.47184 -8.90101,1.60637 -0.11315,-3.07821"
         style="fill:#000000;fill-opacity:1;stroke:none" />
      <rect
         ry="2.7779193"
         y="823.56268"
         x="153.79573"
         height="11.111677"
         width="14.647211"
         id="rect3808"
         style="fill:#ff5274;fill-opacity:1;stroke:none" />
      <rect
         y="823.5423"
         x="165.89725"
         height="11.869292"
         width="6.3134532"
         id="rect3806"
         style="fill:#cdd0d0;fill-opacity:1;stroke:none" />
    </g>
  </g>
</svg>
